<svg width="40" height="40" viewBox="0 0 40 40" fill="none" xmlns="http://www.w3.org/2000/svg">
<path d="M2 12H0V28H2C2.53044 28 3.03914 27.7892 3.41422 27.4142C3.78928 27.0392 4 26.5304 4 26V14C4 13.4696 3.78928 12.9609 3.41422 12.5858C3.03914 12.2107 2.53044 12 2 12Z" fill="#CDCDCD"/>
<path d="M38 12C37.4696 12 36.9608 12.2107 36.5858 12.5858C36.2108 12.9609 36 13.4696 36 14V26C36 26.5304 36.2108 27.0392 36.5858 27.4142C36.9608 27.7892 37.4696 28 38 28H40V12H38Z" fill="#CDCDCD"/>
<path d="M18 28V8H12C10.9391 8 9.92172 8.42142 9.17158 9.17158C8.42142 9.92172 8 10.9391 8 12V28C8 29.0608 8.42142 30.0782 9.17158 30.8284C9.92172 31.5786 10.9391 32 12 32H18V28Z" fill="white"/>
<path d="M28 8H22V32H28C29.0608 32 30.0782 31.5786 30.8284 30.8284C31.5786 30.0782 32 29.0608 32 28V12C32 10.9391 31.5786 9.92172 30.8284 9.17158C30.0782 8.42142 29.0608 8 28 8Z" fill="white"/>
<path d="M18 38C18 38.5304 18.2107 39.0392 18.5858 39.4142C18.9609 39.7892 19.4696 40 20 40C20.5304 40 21.0392 39.7892 21.4142 39.4142C21.7892 39.0392 22 38.5304 22 38V32H18V38Z" fill="#CDCDCD"/>
<path d="M22 2C22 1.46957 21.7892 0.96086 21.4142 0.585786C21.0392 0.210714 20.5304 0 20 0C19.4696 0 18.9609 0.210714 18.5858 0.585786C18.2107 0.96086 18 1.46957 18 2V8H22V2Z" fill="#CDCDCD"/>
</svg>
