<svg width="40" height="40" viewBox="0 0 40 40" fill="none" xmlns="http://www.w3.org/2000/svg">
<g clip-path="url(#clip0_4_183)">
<path fill-rule="evenodd" clip-rule="evenodd" d="M32.1778 12.6385L30.5978 14.1985C29.8578 14.9385 27.1778 13.4585 24.5978 10.8785C23.6452 9.92948 22.7938 8.88384 22.0578 7.75854C21.3378 6.61854 20.9978 5.75854 21.1778 5.15854C19.9894 4.89284 18.7755 4.7587 17.5578 4.75854C13.6617 4.75884 9.87714 6.05926 6.80374 8.45374C3.73034 10.8482 1.54389 14.1999 0.590798 17.9775C-0.362292 21.7552 -0.027501 25.743 1.54212 29.3088C3.11176 32.8748 5.82644 35.8148 9.25606 37.6634C12.6857 39.512 16.6341 40.1632 20.4756 39.5138C24.3172 38.8644 27.8322 36.9518 30.4638 34.0788C33.0954 31.2058 34.693 27.5368 35.0034 23.653C35.314 19.7694 34.3194 15.8931 32.1778 12.6385ZM10.6778 14.1185C8.67776 16.2385 6.19776 17.2585 5.37776 16.4385C4.55776 15.6185 5.59776 13.2385 7.69776 11.1385C9.79776 9.03854 12.1778 7.99854 12.9978 8.81854C13.8178 9.63854 12.7778 11.9985 10.6778 14.1185Z" fill="white"/>
<path fill-rule="evenodd" clip-rule="evenodd" d="M20.0578 37.2588C16.7477 37.2584 13.5054 36.3192 10.7076 34.5502C7.9097 32.781 5.67094 30.2548 4.25118 27.2646C2.83142 24.2742 2.2889 20.9426 2.68658 17.6563C3.08426 14.3701 4.40582 11.264 6.49788 8.69874C4.58934 10.2417 3.0267 12.1688 1.9114 14.355C0.7961 16.5411 0.153105 18.9375 0.0241686 21.3882C-0.104767 23.8392 0.283238 26.2896 1.16299 28.5808C2.04274 30.872 3.39456 32.9524 5.13066 34.687C6.86676 36.4218 8.94832 37.7718 11.2402 38.6498C13.532 39.5276 15.9829 39.9136 18.4336 39.7828C20.8844 39.6518 23.2802 39.0068 25.4654 37.8898C27.6506 36.7728 29.5764 35.2086 31.1178 33.2988C28.0042 35.8654 24.093 37.2658 20.0578 37.2588Z" fill="white"/>
<path d="M29.0579 7.75874C28.9031 7.75906 28.7511 7.7176 28.6179 7.63874C28.4995 7.58114 28.3937 7.50074 28.3065 7.40216C28.2193 7.30358 28.1523 7.18874 28.1097 7.06424C28.0669 6.93976 28.0491 6.80804 28.0575 6.67668C28.0657 6.54532 28.0999 6.41688 28.1579 6.29874C28.4287 5.77424 28.7795 5.29516 29.1979 4.87874C26.8779 2.73874 24.6179 1.55873 24.0579 2.23874C23.4979 2.91874 24.7979 5.63874 27.3779 8.23874C29.9579 10.8387 32.6379 12.2387 33.3779 11.5587C34.1179 10.8787 32.8779 8.63874 30.7379 6.29874C30.4637 6.55976 30.2341 6.86376 30.0579 7.19874C29.9643 7.37978 29.8197 7.52936 29.6419 7.62892C29.4641 7.72848 29.2611 7.77362 29.0579 7.75874Z" fill="white"/>
<path d="M39.2378 0.0986542C39.1184 0.0413048 38.9888 0.0082306 38.8566 0.00135071C38.7244 -0.00552918 38.5922 0.0139224 38.4674 0.0585764C38.3428 0.103231 38.2282 0.172198 38.1304 0.261476C38.0326 0.350754 37.9536 0.458566 37.8978 0.578654C37.2378 1.97865 35.6778 2.35866 33.8978 2.79866C32.184 3.0243 30.5652 3.7161 29.2178 4.79866L29.9578 5.47866L30.6378 6.19866C31.7216 5.36862 33.0044 4.8376 34.3578 4.65866C35.4434 4.57968 36.495 4.24496 37.4266 3.68184C38.3582 3.11874 39.1432 2.34322 39.7178 1.41865C39.7748 1.30077 39.8076 1.17266 39.8142 1.0419C39.8208 0.911144 39.8012 0.78038 39.7564 0.657334C39.7116 0.534288 39.6428 0.421456 39.5536 0.3255C39.4646 0.229544 39.3572 0.152411 39.2378 0.0986542Z" fill="white"/>
</g>
<defs>
<clipPath id="clip0_4_183">
<rect width="40" height="40" fill="white"/>
</clipPath>
</defs>
</svg>
