<svg width="40" height="39" viewBox="0 0 40 39" fill="none" xmlns="http://www.w3.org/2000/svg">
<g clip-path="url(#clip0_4_172)">
<path d="M25.0286 9.52381C24.1715 10.381 23.1239 10.7429 22.6667 10.3048C22.2096 9.86666 22.6667 8.81905 23.4667 7.94286C24.2667 7.06667 25.3715 6.72381 25.8286 7.1619C26.2858 7.6 25.9048 8.62857 25.0286 9.52381Z" fill="#CDCDCD"/>
<path d="M34.2857 0H3.80952C2.79918 0 1.83021 0.40136 1.11578 1.11578C0.40136 1.83021 0 2.79918 0 3.80952V38.0952C11.9619 38.0952 20.1905 30.019 23.3333 20.3238C24.3979 20.731 25.5269 20.944 26.6667 20.9524C26.8762 20.9524 27.0476 20.9524 27.2571 20.9524C25.1874 28.171 20.411 34.3122 13.9238 38.0952H34.2857C35.296 38.0952 36.265 37.6939 36.9794 36.9794C37.6939 36.265 38.0952 35.296 38.0952 34.2857V3.80952C38.0952 2.79918 37.6939 1.83021 36.9794 1.11578C36.265 0.40136 35.296 0 34.2857 0ZM26.6667 17.1429C25.5366 17.1429 24.4316 16.8077 23.492 16.1798C22.5522 15.5519 21.8198 14.6595 21.3874 13.6153C20.9549 12.5712 20.8417 11.4222 21.0621 10.3138C21.2827 9.20531 21.8269 8.18712 22.6261 7.38796C23.4251 6.5888 24.4434 6.04457 25.5518 5.82408C26.6604 5.6036 27.8093 5.71676 28.8535 6.14926C29.8975 6.58175 30.7901 7.31417 31.4179 8.25389C32.0459 9.1936 32.381 10.2984 32.381 11.4286C32.381 12.9441 31.7789 14.3975 30.7072 15.4692C29.6356 16.5408 28.1823 17.1429 26.6667 17.1429Z" fill="white"/>
<path d="M37.981 2.93345C37.981 2.76202 37.981 2.57154 37.8286 2.40011C37.7931 2.33859 37.7613 2.27497 37.7333 2.20964L37.5048 1.79059L37.3714 1.58106L37.1619 1.25725C37.1088 1.17865 37.0448 1.10809 36.9714 1.04773L36.6095 0.80011L36.3429 0.609634C36.2602 0.553922 36.1705 0.509108 36.0762 0.476301C35.816 0.328476 35.5417 0.20723 35.2571 0.114395C35.284 0.393118 35.284 0.673767 35.2571 0.952491V31.9049C35.2571 32.7889 34.9059 33.6368 34.281 34.2619C33.6558 34.887 32.8078 35.2383 31.9238 35.2383H17.9238C16.6477 36.3032 15.2842 37.259 13.8477 38.0954H34.2857C35.2962 38.0954 36.2651 37.6939 36.9794 36.9796C37.6939 36.2651 38.0952 35.2962 38.0952 34.2859V3.80964C38.1253 3.56293 38.1253 3.31348 38.0952 3.06678C38.0661 3.01537 38.0274 2.97009 37.981 2.93345Z" fill="#CDCDCD"/>
</g>
<defs>
<clipPath id="clip0_4_172">
<rect width="40" height="38.0952" fill="white"/>
</clipPath>
</defs>
</svg>
