<svg width="40" height="40" viewBox="0 0 40 40" fill="none" xmlns="http://www.w3.org/2000/svg">
<g clip-path="url(#clip0_4_153)">
<path fill-rule="evenodd" clip-rule="evenodd" d="M20 2C16.4399 2 12.9598 3.05568 9.99974 5.03354C7.03966 7.01142 4.73256 9.82262 3.37018 13.1117C2.0078 16.4008 1.65134 20.02 2.34588 23.5116C3.0404 27.0032 4.75474 30.2106 7.27208 32.728C9.78944 35.2452 12.9967 36.9596 16.4884 37.6542C19.98 38.3486 23.5992 37.9922 26.8884 36.6298C30.1774 35.2674 32.9886 32.9604 34.9664 30.0002C36.9444 27.0402 38 23.56 38 20C38 15.2261 36.1036 10.6477 32.728 7.27208C29.3522 3.89642 24.774 2 20 2ZM20 32C17.6266 32 15.3066 31.2962 13.3332 29.9776C11.3598 28.659 9.8217 26.785 8.91346 24.5922C8.0052 22.3994 7.76756 19.9867 8.23058 17.6589C8.6936 15.3311 9.8365 13.1929 11.5147 11.5147C13.193 9.83648 15.3312 8.6936 17.6589 8.23058C19.9867 7.76756 22.3994 8.0052 24.5922 8.91344C26.785 9.8217 28.659 11.3598 29.9776 13.3332C31.2962 15.3065 32 17.6266 32 20C32 23.1826 30.7358 26.2348 28.4852 28.4852C26.2348 30.7358 23.1826 32 20 32Z" fill="#CDCDCD"/>
<path d="M20 0C16.0444 0 12.1776 1.17298 8.8886 3.3706C5.59962 5.56824 3.03618 8.6918 1.52242 12.3463C0.00866592 16.0009 -0.387402 20.0222 0.384304 23.9018C1.15601 27.7814 3.06082 31.345 5.85788 34.1422C8.65492 36.9392 12.2186 38.844 16.0982 39.6158C19.9778 40.3874 23.9992 39.9914 27.6536 38.4776C31.3082 36.9638 34.4318 34.4004 36.6294 31.1114C38.827 27.8224 40 23.9556 40 20C40 14.6957 37.8928 9.6086 34.1422 5.85786C30.3914 2.10714 25.3044 0 20 0ZM20 37.5C16.5388 37.5 13.1554 36.4736 10.2775 34.5508C7.39966 32.6278 5.15666 29.8946 3.83212 26.697C2.50758 23.4992 2.16102 19.9806 2.83626 16.5859C3.5115 13.1913 5.17822 10.0731 7.62564 7.62564C10.0731 5.17822 13.1913 3.5115 16.5859 2.83626C19.9806 2.16102 23.4992 2.50758 26.697 3.8321C29.8946 5.15664 32.6278 7.39966 34.5508 10.2775C36.4736 13.1554 37.5 16.5388 37.5 20C37.5 24.6412 35.6562 29.0924 32.3744 32.3744C29.0924 35.6562 24.6412 37.5 20 37.5Z" fill="white"/>
<path d="M26.6832 16.561L12.825 22.3012L13.3071 23.4654L27.1654 17.7251L26.6832 16.561Z" fill="white"/>
<path d="M17.694 12.8375L16.5483 13.312L22.2886 27.1702L23.4342 26.6956L17.694 12.8375Z" fill="white"/>
<path d="M17.1399 14.3799C17.8358 14.3799 18.3999 13.8157 18.3999 13.1199C18.3999 12.424 17.8358 11.8599 17.1399 11.8599C16.444 11.8599 15.8799 12.424 15.8799 13.1199C15.8799 13.8157 16.444 14.3799 17.1399 14.3799Z" fill="white"/>
<path d="M22.8601 28.1202C23.5449 28.1202 24.1001 27.565 24.1001 26.8802C24.1001 26.1954 23.5449 25.6402 22.8601 25.6402C22.1753 25.6402 21.6201 26.1954 21.6201 26.8802C21.6201 27.565 22.1753 28.1202 22.8601 28.1202Z" fill="white"/>
<path d="M26.8801 18.3999C27.5759 18.3999 28.1401 17.8358 28.1401 17.1399C28.1401 16.444 27.5759 15.8799 26.8801 15.8799C26.1843 15.8799 25.6201 16.444 25.6201 17.1399C25.6201 17.8358 26.1843 18.3999 26.8801 18.3999Z" fill="white"/>
<path d="M13.1201 24.12C13.816 24.12 14.3801 23.556 14.3801 22.86C14.3801 22.1642 13.816 21.6 13.1201 21.6C12.4242 21.6 11.8601 22.1642 11.8601 22.86C11.8601 23.556 12.4242 24.12 13.1201 24.12Z" fill="white"/>
<path d="M20 22.5C21.3808 22.5 22.5 21.3808 22.5 20C22.5 18.6193 21.3808 17.5 20 17.5C18.6193 17.5 17.5 18.6193 17.5 20C17.5 21.3808 18.6193 22.5 20 22.5Z" fill="#CDCDCD"/>
<path fill-rule="evenodd" clip-rule="evenodd" d="M20 7.5C17.5277 7.5 15.111 8.23312 13.0554 9.60662C10.9998 10.9801 9.3976 12.9324 8.45152 15.2165C7.50542 17.5005 7.25788 20.0138 7.74018 22.4386C8.2225 24.8634 9.41302 27.0906 11.1612 28.8388C12.9093 30.587 15.1366 31.7776 17.5614 32.2598C19.9861 32.7422 22.4994 32.4946 24.7836 31.5484C27.0676 30.6024 29.0198 29.0002 30.3934 26.9446C31.7668 24.889 32.5 22.4722 32.5 20C32.5 16.6848 31.183 13.5054 28.8388 11.1612C26.4946 8.81696 23.3152 7.5 20 7.5ZM20 30C18.0222 30 16.0888 29.4136 14.4443 28.3146C12.7998 27.2158 11.5181 25.654 10.7612 23.8268C10.0043 21.9996 9.8063 19.9889 10.1922 18.0491C10.578 16.1093 11.5304 14.3275 12.9289 12.9289C14.3275 11.5304 16.1093 10.578 18.0491 10.1921C19.9889 9.8063 21.9996 10.0043 23.8268 10.7612C25.6542 11.5181 27.2158 12.7998 28.3148 14.4443C29.4136 16.0888 30 18.0222 30 20C30 22.6522 28.9464 25.1958 27.071 27.071C25.1958 28.9464 22.6522 30 20 30Z" fill="white"/>
<path fill-rule="evenodd" clip-rule="evenodd" d="M29.7801 17.9999L37.4201 16.3999C36.9535 14.2661 36.1067 12.2337 34.9201 10.3999L28.3601 14.5399C29.0543 15.5897 29.5367 16.7651 29.7801 17.9999Z" fill="white"/>
<path fill-rule="evenodd" clip-rule="evenodd" d="M29.7801 22C29.5293 23.214 29.0471 24.3682 28.3601 25.4L34.9201 29.66C36.3261 27.9498 37.1959 25.8626 37.4201 23.66L29.7801 22Z" fill="white"/>
<path fill-rule="evenodd" clip-rule="evenodd" d="M22 29.7798L23.6 37.4198C25.7602 37.0402 27.8094 36.1864 29.6 34.9198L25.34 28.3598C24.3264 29.04 23.193 29.5218 22 29.7798Z" fill="white"/>
<path fill-rule="evenodd" clip-rule="evenodd" d="M14.54 28.3598L10.28 34.9198C11.9257 36.4298 14.0491 37.3146 16.2801 37.4198L18 29.7798C16.7652 29.5364 15.5898 29.054 14.54 28.3598Z" fill="white"/>
<path fill-rule="evenodd" clip-rule="evenodd" d="M10.2201 22L2.58008 23.6C2.77366 25.8102 3.647 27.9062 5.08008 29.6L11.6401 25.34C10.96 24.3264 10.4781 23.193 10.2201 22Z" fill="white"/>
<path fill-rule="evenodd" clip-rule="evenodd" d="M11.6401 14.5398L5.08008 10.2798C3.71064 12.0117 2.84556 14.0879 2.58008 16.2798L10.2201 17.9998C10.4635 16.765 10.9459 15.5896 11.6401 14.5398Z" fill="white"/>
<path fill-rule="evenodd" clip-rule="evenodd" d="M17.9999 10.2201L16.3999 2.58008L10.3999 5.08008L14.5399 11.6401C15.5897 10.9459 16.7651 10.4635 17.9999 10.2201Z" fill="white"/>
<path fill-rule="evenodd" clip-rule="evenodd" d="M25.46 11.6401L29.72 5.08008L23.72 2.58008L22 10.2201C23.2348 10.4635 24.4102 10.9459 25.46 11.6401Z" fill="white"/>
</g>
<defs>
<clipPath id="clip0_4_153">
<rect width="40" height="40" fill="white"/>
</clipPath>
</defs>
</svg>
